{
    "asset" : {
        "generator" : "Khronos glTF Blender I/O v1.2.75",
        "version" : "2.0"
    },
    "scene" : 0,
    "scenes" : [
        {
            "name" : "Scene",
            "nodes" : [
                0,
                1,
                2,
                3,
                4,
                5,
                6,
                7,
                8
            ]
        }
    ],
    "nodes" : [
        {
            "name" : "Camera",
            "rotation" : [
                0.483536034822464,
                0.33687159419059753,
                -0.20870360732078552,
                0.7804827094078064
            ],
            "translation" : [
                7.358891487121582,
                4.958309173583984,
                6.925790786743164
            ]
        },
        {
            "mesh" : 0,
            "name" : "Logo Innovatietafel",
            "scale" : [
                100,
                100,
                100
            ]
        },
        {
            "mesh" : 1,
            "name" : "Logo Innovatietafel.001",
            "scale" : [
                100,
                100,
                100
            ]
        },
        {
            "mesh" : 2,
            "name" : "Logo Innovatietafel.002",
            "scale" : [
                100,
                100,
                100
            ]
        },
        {
            "mesh" : 3,
            "name" : "Logo Innovatietafel.003",
            "scale" : [
                100,
                100,
                100
            ]
        },
        {
            "mesh" : 4,
            "name" : "Logo Innovatietafel.004",
            "scale" : [
                100,
                100,
                100
            ]
        },
        {
            "mesh" : 5,
            "name" : "Logo Innovatietafel.005",
            "scale" : [
                100,
                100,
                100
            ]
        },
        {
            "mesh" : 6,
            "name" : "Logo Innovatietafel.006",
            "scale" : [
                100,
                100,
                100
            ]
        },
        {
            "mesh" : 7,
            "name" : "Logo Innovatietafel.007",
            "scale" : [
                100,
                100,
                100
            ]
        }
    ],
    "materials" : [
        {
            "doubleSided" : true,
            "name" : "Material.001",
            "pbrMetallicRoughness" : {}
        }
    ],
    "meshes" : [
        {
            "name" : "Logo Innovatietafel.001",
            "primitives" : [
                {
                    "attributes" : {
                        "POSITION" : 0,
                        "NORMAL" : 1
                    },
                    "indices" : 2,
                    "material" : 0
                }
            ]
        },
        {
            "name" : "Logo Innovatietafel.002",
            "primitives" : [
                {
                    "attributes" : {
                        "POSITION" : 3,
                        "NORMAL" : 4
                    },
                    "indices" : 5,
                    "material" : 0
                }
            ]
        },
        {
            "name" : "Logo Innovatietafel.003",
            "primitives" : [
                {
                    "attributes" : {
                        "POSITION" : 6,
                        "NORMAL" : 7
                    },
                    "indices" : 8,
                    "material" : 0
                }
            ]
        },
        {
            "name" : "Logo Innovatietafel.004",
            "primitives" : [
                {
                    "attributes" : {
                        "POSITION" : 9,
                        "NORMAL" : 10
                    },
                    "indices" : 11,
                    "material" : 0
                }
            ]
        },
        {
            "name" : "Logo Innovatietafel.005",
            "primitives" : [
                {
                    "attributes" : {
                        "POSITION" : 12,
                        "NORMAL" : 13
                    },
                    "indices" : 5,
                    "material" : 0
                }
            ]
        },
        {
            "name" : "Logo Innovatietafel.006",
            "primitives" : [
                {
                    "attributes" : {
                        "POSITION" : 14,
                        "NORMAL" : 15
                    },
                    "indices" : 8,
                    "material" : 0
                }
            ]
        },
        {
            "name" : "Logo Innovatietafel.007",
            "primitives" : [
                {
                    "attributes" : {
                        "POSITION" : 16,
                        "NORMAL" : 17
                    },
                    "indices" : 11,
                    "material" : 0
                }
            ]
        },
        {
            "name" : "Logo Innovatietafel.008",
            "primitives" : [
                {
                    "attributes" : {
                        "POSITION" : 18,
                        "NORMAL" : 19
                    },
                    "indices" : 20,
                    "material" : 0
                }
            ]
        }
    ],
    "accessors" : [
        {
            "bufferView" : 0,
            "componentType" : 5126,
            "count" : 18454,
            "max" : [
                0.05000000074505806,
                0.04999011754989624,
                0.05000000074505806
            ],
            "min" : [
                -0.04996047168970108,
                -0.04999011754989624,
                -0.05000000074505806
            ],
            "type" : "VEC3"
        },
        {
            "bufferView" : 1,
            "componentType" : 5126,
            "count" : 18454,
            "type" : "VEC3"
        },
        {
            "bufferView" : 2,
            "componentType" : 5123,
            "count" : 18486,
            "type" : "SCALAR"
        },
        {
            "bufferView" : 3,
            "componentType" : 5126,
            "count" : 18470,
            "max" : [
                0.12497683614492416,
                0.02499505877494812,
                -0.1482188105583191
            ],
            "min" : [
                0.0750085636973381,
                -0.02499505877494812,
                -0.19819651544094086
            ],
            "type" : "VEC3"
        },
        {
            "bufferView" : 4,
            "componentType" : 5126,
            "count" : 18470,
            "type" : "VEC3"
        },
        {
            "bufferView" : 5,
            "componentType" : 5123,
            "count" : 18486,
            "type" : "SCALAR"
        },
        {
            "bufferView" : 6,
            "componentType" : 5126,
            "count" : 18470,
            "max" : [
                -0.07502315938472748,
                0.02499505877494812,
                -0.14821365475654602
            ],
            "min" : [
                -0.12499143183231354,
                -0.02499505877494812,
                -0.1981913447380066
            ],
            "type" : "VEC3"
        },
        {
            "bufferView" : 7,
            "componentType" : 5126,
            "count" : 18470,
            "type" : "VEC3"
        },
        {
            "bufferView" : 8,
            "componentType" : 5123,
            "count" : 18486,
            "type" : "SCALAR"
        },
        {
            "bufferView" : 9,
            "componentType" : 5126,
            "count" : 18458,
            "max" : [
                -0.17499999701976776,
                0.02499505877494812,
                0.02500000037252903
            ],
            "min" : [
                -0.22499999403953552,
                -0.02499505877494812,
                -0.02498023584485054
            ],
            "type" : "VEC3"
        },
        {
            "bufferView" : 10,
            "componentType" : 5126,
            "count" : 18458,
            "type" : "VEC3"
        },
        {
            "bufferView" : 11,
            "componentType" : 5123,
            "count" : 18486,
            "type" : "SCALAR"
        },
        {
            "bufferView" : 12,
            "componentType" : 5126,
            "count" : 18470,
            "max" : [
                -0.0750085636973381,
                0.02499505877494812,
                0.19819651544094086
            ],
            "min" : [
                -0.12497683614492416,
                -0.02499505877494812,
                0.1482188105583191
            ],
            "type" : "VEC3"
        },
        {
            "bufferView" : 13,
            "componentType" : 5126,
            "count" : 18470,
            "type" : "VEC3"
        },
        {
            "bufferView" : 14,
            "componentType" : 5126,
            "count" : 18470,
            "max" : [
                0.12499143183231354,
                0.02499505877494812,
                0.1981913447380066
            ],
            "min" : [
                0.07502315938472748,
                -0.02499505877494812,
                0.14821365475654602
            ],
            "type" : "VEC3"
        },
        {
            "bufferView" : 15,
            "componentType" : 5126,
            "count" : 18470,
            "type" : "VEC3"
        },
        {
            "bufferView" : 16,
            "componentType" : 5126,
            "count" : 18458,
            "max" : [
                0.22499999403953552,
                0.02499505877494812,
                0.02498023584485054
            ],
            "min" : [
                0.17499999701976776,
                -0.02499505877494812,
                -0.02500000037252903
            ],
            "type" : "VEC3"
        },
        {
            "bufferView" : 17,
            "componentType" : 5126,
            "count" : 18458,
            "type" : "VEC3"
        },
        {
            "bufferView" : 18,
            "componentType" : 5126,
            "count" : 50251,
            "max" : [
                0.22546033561229706,
                0.015325259417295456,
                0.2500297427177429
            ],
            "min" : [
                -0.22546033561229706,
                -0.01532526034861803,
                -0.2500297427177429
            ],
            "type" : "VEC3"
        },
        {
            "bufferView" : 19,
            "componentType" : 5126,
            "count" : 50251,
            "type" : "VEC3"
        },
        {
            "bufferView" : 20,
            "componentType" : 5123,
            "count" : 50292,
            "type" : "SCALAR"
        }
    ],
    "bufferViews" : [
        {
            "buffer" : 0,
            "byteLength" : 221448,
            "byteOffset" : 0
        },
        {
            "buffer" : 0,
            "byteLength" : 221448,
            "byteOffset" : 221448
        },
        {
            "buffer" : 0,
            "byteLength" : 36972,
            "byteOffset" : 442896
        },
        {
            "buffer" : 0,
            "byteLength" : 221640,
            "byteOffset" : 479868
        },
        {
            "buffer" : 0,
            "byteLength" : 221640,
            "byteOffset" : 701508
        },
        {
            "buffer" : 0,
            "byteLength" : 36972,
            "byteOffset" : 923148
        },
        {
            "buffer" : 0,
            "byteLength" : 221640,
            "byteOffset" : 960120
        },
        {
            "buffer" : 0,
            "byteLength" : 221640,
            "byteOffset" : 1181760
        },
        {
            "buffer" : 0,
            "byteLength" : 36972,
            "byteOffset" : 1403400
        },
        {
            "buffer" : 0,
            "byteLength" : 221496,
            "byteOffset" : 1440372
        },
        {
            "buffer" : 0,
            "byteLength" : 221496,
            "byteOffset" : 1661868
        },
        {
            "buffer" : 0,
            "byteLength" : 36972,
            "byteOffset" : 1883364
        },
        {
            "buffer" : 0,
            "byteLength" : 221640,
            "byteOffset" : 1920336
        },
        {
            "buffer" : 0,
            "byteLength" : 221640,
            "byteOffset" : 2141976
        },
        {
            "buffer" : 0,
            "byteLength" : 221640,
            "byteOffset" : 2363616
        },
        {
            "buffer" : 0,
            "byteLength" : 221640,
            "byteOffset" : 2585256
        },
        {
            "buffer" : 0,
            "byteLength" : 221496,
            "byteOffset" : 2806896
        },
        {
            "buffer" : 0,
            "byteLength" : 221496,
            "byteOffset" : 3028392
        },
        {
            "buffer" : 0,
            "byteLength" : 603012,
            "byteOffset" : 3249888
        },
        {
            "buffer" : 0,
            "byteLength" : 603012,
            "byteOffset" : 3852900
        },
        {
            "buffer" : 0,
            "byteLength" : 100584,
            "byteOffset" : 4455912
        }
    ],
    "buffers" : [
        {
            "byteLength" : 4556496,
            "uri" : "InnovatieTafelLogo.bin"
        }
    ]
}
